<svg xmlns="http://www.w3.org/2000/svg" viewBox="0 0 81.02 81.02"><defs><style>.cls-1{fill:#fff;}.cls-2{fill:#13bfdd;}</style></defs><g id="Layer_2" data-name="Layer 2"><g id="Layer_1-2" data-name="Layer 1"><circle class="cls-1" cx="40.51" cy="40.51" r="40.51"/><path class="cls-2" d="M14.72,66.57l41.18.19c2.66,0,9-4.75,12.73-7.71l-49-.23A29.38,29.38,0,0,0,14.72,66.57Zm33.91-5A1.37,1.37,0,0,1,50,60.23a1.38,1.38,0,1,1-1.38,1.37Zm-9.48,0a1.38,1.38,0,1,1,1.36,1.38A1.37,1.37,0,0,1,39.15,61.56Zm-14.44-.07a1.37,1.37,0,0,1,1.38-1.37,1.38,1.38,0,1,1,0,2.75A1.37,1.37,0,0,1,24.71,61.49Z"/><path class="cls-2" d="M20.68,57.88l49.12.23c1-.83,1.63-1.37,1.63-1.37l-27.12-.13L71,54C65,21.49,38.61,4.18,38.61,4.18l-1.14,52.4H35L36.35,7.45l-12.85,48,7,1.11-6.5,0A5.37,5.37,0,0,0,20.68,57.88ZM65.74,40.82,39.21,42.36l-.08,0,.78-35.77C44.75,9.9,58.33,22.18,65.74,40.82Zm1.89,5.31L39.27,47.78a1,1,0,0,0-.25,0l.06-3,.27,0,26.76-1.56a1.09,1.09,0,0,0,.51-.16C67,44.13,67.31,45.12,67.63,46.13ZM38.84,55.61,39,50.22a1.14,1.14,0,0,0,.45.06l28.66-1.67a1.17,1.17,0,0,0,.27,0q.59,2.16,1,4.41Zm-5.17-.31-8.34-1.42L34.7,18.23Z"/></g></g></svg>